<?xml version="1.0" encoding="UTF-8"?>
<svg id="Layer_2" data-name="Layer 2" xmlns="http://www.w3.org/2000/svg" viewBox="0 0 1140.79 638.32">
  <g id="Layer_2-2" data-name="Layer 2">
    <g>
      <polygon points="190.41 214.8 312.56 101.55 278.56 64.89 116.86 214.8 278.56 364.7 312.56 328.04 190.41 214.8" style="fill: #a9c5fc;"/>
      <polygon points="829.78 101.55 951.93 214.8 829.78 328.04 863.78 364.7 1025.47 214.8 863.78 64.89 829.78 101.55" style="fill: #a9c5fc;"/>
      <path d="M845.77,6.31c-10.32-9.17-26.12-8.23-35.29,2.09l-176.75,198.97-91.72-77.67c-5.08-4.3-11.67-6.41-18.31-5.83-6.64.57-12.77,3.77-17.04,8.89l-191.81,229.77c-8.85,10.6-7.43,26.37,3.17,35.21,4.68,3.9,10.36,5.81,16.01,5.81,7.16,0,14.26-3.06,19.21-8.98l175.67-210.44,91.14,77.18c10.36,8.77,25.83,7.67,34.85-2.48l192.96-217.23c9.17-10.32,8.24-26.12-2.09-35.29Z" style="fill: #a9c5fc;"/>
    </g>
    <g>
      <path d="M43.95,607.71h42.97l-5.3,29.24H0l24.53-138.33h38.46l-19.03,109.1Z" style="fill: #fff;"/>
      <path d="M154.03,529.03l-3.92,22.96h44.15l-5.3,29.24h-44.15l-4.51,25.12h50.04l-5.3,30.61h-88.69l24.53-138.33h88.49l-5.3,30.41h-50.04Z" style="fill: #fff;"/>
      <path d="M261.55,529.03l-3.92,22.96h44.15l-5.3,29.24h-44.15l-4.51,25.12h50.04l-5.3,30.61h-88.69l24.53-138.33h88.49l-5.3,30.41h-50.04Z" style="fill: #fff;"/>
      <path d="M551.26,577.79c-4.65-6.08-11.15-10.11-19.52-12.07,7.06-1.83,12.72-5.52,16.97-11.09,4.25-5.56,6.38-12.39,6.38-20.5,0-11.77-4.06-20.73-12.17-26.88-8.11-6.15-19.23-9.22-33.36-9.22h-70.83v.03l-110.47.56-5.49,30.61h36.5l-19.03,107.72h38.65l19.03-107.72h40.81v107.72h72.8c15.04,0,26.59-3.3,34.63-9.91,8.04-6.6,12.07-15.99,12.07-28.16,0-7.98-2.32-15.01-6.96-21.09ZM482.29,532.56h16.88c3.92,0,6.83.82,8.73,2.45,1.89,1.64,2.85,4.15,2.85,7.55s-.95,5.69-2.85,7.26c-1.9,1.57-4.81,2.35-8.73,2.35h-16.88v-19.62ZM510.84,599.76c-1.9,1.5-4.81,2.26-8.73,2.26h-19.82v-19.62h19.82c7.72,0,11.58,3.34,11.58,10.01,0,3.4-.95,5.86-2.84,7.36Z" style="fill: #fff;"/>
      <path d="M604.63,629.1c-10.92-6.15-19.59-14.65-26-25.51-6.41-10.86-9.61-23.09-9.61-36.69s3.2-25.83,9.61-36.69c6.41-10.86,15.08-19.33,26-25.41,10.92-6.08,22.92-9.12,36.01-9.12s25.05,3.04,35.91,9.12c10.86,6.08,19.46,14.55,25.8,25.41,6.34,10.86,9.52,23.09,9.52,36.69s-3.17,25.84-9.52,36.69c-6.35,10.86-14.98,19.36-25.9,25.51-10.92,6.15-22.86,9.22-35.81,9.22s-25.08-3.07-36.01-9.22ZM660.65,589.36c4.71-5.56,7.06-13.05,7.06-22.47s-2.35-17.1-7.06-22.66c-4.71-5.56-11.38-8.34-20.01-8.34s-15.5,2.78-20.21,8.34c-4.71,5.56-7.06,13.12-7.06,22.66s2.35,16.91,7.06,22.47c4.71,5.56,11.45,8.34,20.21,8.34s15.31-2.78,20.01-8.34Z" style="fill: #fff;"/>
      <path d="M816.64,615.95h-46.31l-6.87,21h-45.72l50.82-138.92h50.23l50.62,138.92h-45.91l-6.87-21ZM806.05,583.18l-12.56-38.65-12.56,38.65h25.12Z" style="fill: #fff;"/>
      <path d="M949.09,636.94l-26.1-49.84h-.2v49.84h-43.56v-138.92h64.75c11.25,0,20.86,2,28.84,5.98,7.98,3.99,13.96,9.42,17.95,16.29,3.99,6.87,5.98,14.62,5.98,23.25,0,9.29-2.58,17.53-7.75,24.72-5.17,7.2-12.59,12.36-22.27,15.5l30.22,53.17h-47.88ZM922.79,558.07h17.27c4.18,0,7.32-.95,9.42-2.84,2.09-1.9,3.14-4.87,3.14-8.93,0-3.66-1.08-6.54-3.24-8.63-2.16-2.09-5.27-3.14-9.32-3.14h-17.27v23.55Z" style="fill: #fff;"/>
      <path d="M1106.75,506.85c10.92,5.89,19.33,14.06,25.21,24.53,5.89,10.47,8.83,22.37,8.83,35.71s-2.94,25.12-8.83,35.71-14.29,18.93-25.21,25.02c-10.92,6.08-23.64,9.12-38.16,9.12h-57.88v-138.92h57.88c14.52,0,27.24,2.94,38.16,8.83ZM1088.01,590.05c5.75-5.36,8.63-13.01,8.63-22.96s-2.88-17.59-8.63-22.96c-5.76-5.36-13.54-8.04-23.35-8.04h-10.4v62h10.4c9.81,0,17.59-2.68,23.35-8.04Z" style="fill: #fff;"/>
    </g>
  </g>
</svg>